<?xml version="1.0" encoding="UTF-8"?>
<!DOCTYPE svg PUBLIC "-//W3C//DTD SVG 1.1//EN" "http://www.w3.org/Graphics/SVG/1.1/DTD/svg11.dtd">
<svg xmlns="http://www.w3.org/2000/svg" version="1.1" width="1250px" height="1252px" viewBox="983 620 1252 1252" style="shape-rendering:geometricPrecision; text-rendering:geometricPrecision; image-rendering:optimizeQuality; fill-rule:evenodd; clip-rule:evenodd" xmlns:xlink="http://www.w3.org/1999/xlink">
<g><path style="opacity:0.998" fill="#21d45a" d="M 1290.5,620.5 C 1502.83,620.333 1715.17,620.5 1927.5,621C 1967.25,621.012 2006.25,626.345 2044.5,637C 2132.16,666.662 2190.33,725.495 2219,813.5C 2227.13,842.951 2231.8,872.951 2233,903.5C 2234.14,1017.49 2234.64,1131.49 2234.5,1245.5C 2234.64,1359.84 2234.14,1474.17 2233,1588.5C 2231.7,1632.65 2222.37,1674.99 2205,1715.5C 2161.14,1801.97 2090.97,1852.13 1994.5,1866C 1980.22,1867.87 1965.88,1869.21 1951.5,1870C 1837.34,1871.14 1723.18,1871.64 1609,1871.5C 1494.82,1871.64 1380.66,1871.14 1266.5,1870C 1211.75,1869.19 1160.75,1855.19 1113.5,1828C 1042.14,1781.85 1000.64,1716.35 989,1631.5C 987.126,1617.22 985.792,1602.88 985,1588.5C 983.36,1368.51 983.026,1148.51 984,928.5C 983.579,881.108 991.245,835.108 1007,790.5C 1041.96,709.207 1102.13,656.707 1187.5,633C 1221.56,625.42 1255.9,621.254 1290.5,620.5 Z"/></g>
<g><path style="opacity:1" fill="#fefefe" d="M 1602.5,780.5 C 1654.11,778.122 1702.78,788.955 1748.5,813C 1799.43,840.923 1842.6,878.089 1878,924.5C 1945.24,1016.04 1986.9,1118.37 2003,1231.5C 2013.82,1304.04 2011.15,1376.04 1995,1447.5C 1979.5,1512.68 1948.34,1568.85 1901.5,1616C 1871.86,1642.83 1837.86,1662.5 1799.5,1675C 1753.17,1687.33 1706.84,1699.67 1660.5,1712C 1588.69,1725.64 1521.69,1713.31 1459.5,1675C 1408.18,1642.34 1365.34,1600.84 1331,1550.5C 1245.38,1419.69 1208.04,1276.02 1219,1119.5C 1225.16,1048.01 1248.16,982.675 1288,923.5C 1325.26,871.604 1374.76,837.104 1436.5,820C 1473.83,810 1511.17,800 1548.5,790C 1566.32,784.975 1584.32,781.808 1602.5,780.5 Z"/></g>
<g><path style="opacity:1" fill="#22d55a" d="M 1604.5,849.5 C 1657.67,847.954 1705.67,862.787 1748.5,894C 1793.93,928.758 1830.77,970.925 1859,1020.5C 1925.51,1138.91 1950.51,1265.57 1934,1400.5C 1925.78,1455.22 1904.78,1504.22 1871,1547.5C 1845.14,1578.02 1812.98,1598.85 1774.5,1610C 1730.42,1621.35 1686.42,1633.02 1642.5,1645C 1600.13,1652.66 1559.46,1647.33 1520.5,1629C 1480.52,1609.37 1446.02,1582.53 1417,1548.5C 1379.52,1503.57 1350.18,1453.57 1329,1398.5C 1296.29,1313.89 1282.29,1226.22 1287,1135.5C 1290.8,1075.11 1308.8,1019.45 1341,968.5C 1364.79,933.688 1396.29,908.521 1435.5,893C 1479.06,880.622 1522.72,868.622 1566.5,857C 1579.14,853.638 1591.81,851.138 1604.5,849.5 Z"/></g>
<g><path style="opacity:1" fill="#fefefe" d="M 1604.5,919.5 C 1635.66,918.04 1664.66,925.206 1691.5,941C 1711.41,953.563 1729.58,968.396 1746,985.5C 1758.23,1003.21 1756.73,1019.71 1741.5,1035C 1727.39,1044.58 1713.05,1044.91 1698.5,1036C 1685.25,1021.4 1670.25,1009.07 1653.5,999C 1617.37,979.829 1588.87,987.663 1568,1022.5C 1551.83,1053.84 1543.16,1087.18 1542,1122.5C 1539.69,1219.67 1563.69,1309.67 1614,1392.5C 1630.58,1419.08 1651.41,1441.92 1676.5,1461C 1723.58,1491.21 1758.41,1480.71 1781,1429.5C 1791.42,1403.16 1797.42,1375.82 1799,1347.5C 1799.33,1336.83 1799.67,1326.17 1800,1315.5C 1806.28,1293.28 1820.78,1284.11 1843.5,1288C 1855.14,1290.97 1862.97,1298.14 1867,1309.5C 1870.98,1360.94 1863.31,1410.6 1844,1458.5C 1831.1,1488.74 1810.93,1512.9 1783.5,1531C 1775.52,1535.49 1767.19,1539.16 1758.5,1542C 1716.5,1553.33 1674.5,1564.66 1632.5,1576C 1598.04,1582.44 1565.71,1576.78 1535.5,1559C 1499.13,1536.3 1468.97,1507.14 1445,1471.5C 1376.83,1365.5 1347.83,1249.5 1358,1123.5C 1362.03,1087.08 1372.69,1052.75 1390,1020.5C 1406.4,990.43 1430.57,969.263 1462.5,957C 1509.78,943.917 1557.11,931.417 1604.5,919.5 Z"/></g>
<g><path style="opacity:1" fill="#fefefe" d="M 1769.5,1089.5 C 1789.68,1088.51 1806.18,1095.84 1819,1111.5C 1838.28,1137.27 1844.61,1165.94 1838,1197.5C 1827.78,1229.53 1806.95,1240.03 1775.5,1229C 1751.36,1212.59 1737.53,1189.75 1734,1160.5C 1731.11,1140.08 1735.44,1121.41 1747,1104.5C 1753.34,1097.59 1760.84,1092.59 1769.5,1089.5 Z"/></g>
<g><path style="opacity:1" fill="#fefefe" d="M 1642.5,1123.5 C 1659.36,1121.84 1674.02,1126.67 1686.5,1138C 1714.14,1167.74 1721.64,1201.9 1709,1240.5C 1695.66,1266.72 1675.5,1273.89 1648.5,1262C 1630.64,1249.81 1618.47,1233.31 1612,1212.5C 1606.21,1193.45 1606.21,1174.45 1612,1155.5C 1617.29,1140.05 1627.45,1129.38 1642.5,1123.5 Z"/></g>
</svg>
